<?xml version="1.0" encoding="utf-8"?>
<!-- Generator: Adobe Illustrator 21.0.0, SVG Export Plug-In . SVG Version: 6.00 Build 0)  -->
<svg version="1.1" id="Capa_1" xmlns="http://www.w3.org/2000/svg" xmlns:xlink="http://www.w3.org/1999/xlink" x="0px" y="0px"
	 viewBox="0 0 257.5 64.5" style="enable-background:new 0 0 257.5 64.5;" xml:space="preserve">
<style type="text/css">
	.st0{fill:#FF7500;}
</style>
<g id="Capa_2">
</g>
<g>
	<g>
		<path class="st0" d="M72.2,46.7l2-0.2c2.2-0.2,2.2-0.5,2.2-7.3V19.7c0-6.8,0-7.1-2.2-7.3l-2-0.2v-1.3h14.6
			c5.3,0,13.6,0.8,13.6,10.1c0,7.6-8.5,11.2-13.8,11.2h-1V31c2.4,0,8.9-1.1,8.9-9.6c0-6.6-4.4-8.6-9.5-8.6c-1.2,0-2.4,0.2-3.5,0.5
			v26c0,6.8,0,7.1,3.1,7.3l2,0.2V48H72.1L72.2,46.7L72.2,46.7z"/>
		<path class="st0" d="M100,33.3c0-9.7,7.5-15.8,16.2-15.8c8.3,0,15.3,5.3,15.3,15.3c0,9.9-7.2,15.8-16.2,15.8
			C106.5,48.6,100,43,100,33.3z M116.3,47.1c7.7,0,10.6-6.6,10.6-13.2c0-8.5-4.2-15-11.3-15c-6.8,0-10.7,5.6-10.7,13.4
			C104.8,41.6,109.5,47.1,116.3,47.1z"/>
		<path class="st0" d="M145.2,30.9c3.6,2,7.3,3.9,7.3,9.3c0,6.1-5.6,8.4-10.4,8.4c-3.5,0-5.7-0.9-7.1-1.8c-0.8-1.8-1.4-5.1-1.4-7.9
			l1.4-0.4c0.5,3.2,2.2,8.6,8.3,8.6c3.1,0,5.4-2,5.4-5.5c0-3.3-2.8-5.5-6.3-7.1l-2.9-1.6c-2.6-1.4-5-4.2-5-7.6
			c0-5.5,4.6-7.8,9.4-7.8c2.8,0,5.1,0.7,6.2,1.4c0.4,1.4,0.5,5.1,0.5,6.2h-1.1c-0.5-2.3-1.2-6.2-6.3-6.2c-2.6,0-4.9,1.9-4.9,4.9
			c0,2.7,1.9,4.1,4.4,5.5L145.2,30.9z"/>
		<path class="st0" d="M152.6,47l1.6-0.1c1.8-0.2,1.8-0.4,1.8-5.9V25.3c0-5.5,0-5.7-1.8-5.9l-1.6-0.1v-1h11v1l-1.6,0.1
			c-1.8,0.2-1.8,0.4-1.8,5.9v15.6c0,5.5,0,5.7,1.8,5.9l1.6,0.1v1h-11V47z"/>
		<path class="st0" d="M172.5,47l1.7-0.1c2.5-0.2,2.5-0.4,2.5-5.9V19.5h-2.3c-6.4,0-6.5,0.7-7.4,5.9h-1.1c0-0.2-0.1-1.4-0.1-2
			c0-2.1,0.3-4.2,0.5-5.2h25.1c0.2,1,0.5,3.1,0.5,5.2c0,0.6-0.1,1.8-0.1,2h-1.1c-1-5.2-1.1-5.9-7.4-5.9H181v21.4
			c0,5.5,0,5.7,2.5,5.9l1.6,0.1v1h-12.5L172.5,47L172.5,47z"/>
		<path class="st0" d="M193.4,47l1.6-0.1c1.8-0.2,1.8-0.4,1.8-5.9V25.3c0-5.5,0-5.7-1.8-5.9l-1.6-0.1v-1h11v1l-1.6,0.1
			c-1.8,0.2-1.8,0.4-1.8,5.9v15.6c0,5.5,0,5.7,1.8,5.9l1.6,0.1v1h-11V47z"/>
		<path class="st0" d="M209.6,22.8c-0.7-1.7-1.2-3.3-2.7-3.5l-1.3-0.1v-1h11.2v1l-1.4,0.1c-0.7,0.1-2,0.2-2,1.1
			c0,0.2,0.4,1.3,0.6,1.8l7.8,20.1c1-2.7,8.1-20.3,8.1-21.7c0-0.9-0.9-1.1-1.8-1.3l-2-0.3v-1h9.7v1l-1.2,0.3c-0.5,0.1-1,0.4-1.4,0.7
			c-1,1-2.4,5.3-3.6,7.5l-3.1,7.4c-2.6,6.2-4.8,11.7-5.2,12.9c-0.2,0.2-0.9,0.5-1.5,0.7L209.6,22.8z"/>
		<path class="st0" d="M226.1,47l0.9-0.1c1.7-0.3,1.9-0.8,3-3.4l9.4-22.8c0.4-0.9,0.7-1.8,1.1-2.7l1.3-0.4l10.1,26.1
			c0.7,1.8,1.1,2.8,2.3,3.1l1.8,0.3v1h-11.2v-1l2-0.4c0.8-0.1,1.4-0.4,1.4-0.9c0-0.3-0.2-0.6-0.3-0.9l-3.2-8.5
			c-1.7-0.3-3.3-0.5-5-0.5c-1.6,0-3.2,0.2-4.7,0.5l-2.3,6.3c-0.5,1.4-0.9,2.7-0.9,3c0,0.9,0.6,1,1.1,1l2.7,0.4v1h-9.5
			C226.1,48.1,226.1,47,226.1,47z M235.5,34.6c1.4-0.1,2.8-0.2,4.1-0.2c1.4,0,2.9,0,4.3,0.2l-4.1-10.9L235.5,34.6z"/>
	</g>
	<g>
		<g>
			<g>
				<path class="st0" d="M99,59.6c-0.1,1.1-0.3,1.9-0.7,2.9c-0.5,0.2-1.8,0.6-3.5,0.6c-3.2,0-6.3-1.5-6.3-5.8c0-4.5,3.6-5.9,6.3-5.9
					c1.7,0,3,0.4,3.5,0.7c0.2,0.7,0.3,1.7,0.3,2.5l-0.5,0.1C97.9,54,97.7,52,94.8,52c-2.8,0-4.5,1.8-4.5,5c0,2.9,1.4,5.6,4.5,5.6
					c2.8,0,3.2-1.7,3.8-3.1L99,59.6z"/>
				<path class="st0" d="M99.5,58.4c0-2.9,2.3-4.8,4.9-4.8c2.5,0,4.6,1.6,4.6,4.6s-2.2,4.8-4.9,4.8C101.5,63,99.5,61.4,99.5,58.4z
					 M104.5,62.6c2.3,0,3.2-2,3.2-4c0-2.6-1.3-4.5-3.4-4.5c-2,0-3.2,1.7-3.2,4.1C101,60.9,102.4,62.6,104.5,62.6z"/>
				<path class="st0" d="M109.8,62.5l0.3-0.1c0.2,0,0.3-0.1,0.4-0.2c0.1-0.1,0.2-1,0.3-2.2l0.2-3.4c0.1-0.9,0.1-2.4,0.1-2.8l0.4-0.1
					c0.4,0.7,3.5,6.6,3.9,7.3c0.4-0.7,3.5-6.5,3.7-7.2l0.4-0.1c0,0.1,0.1,1.6,0.2,3.4l0.1,2.4c0.1,1.2,0.2,2.5,0.3,2.7
					c0.1,0.1,0.3,0.2,0.5,0.3l0.4,0.1v0.3h-3.5v-0.3l0.5-0.1c0.6-0.1,0.6-0.3,0.6-0.9c0-1.5-0.2-4.4-0.2-5.2l0,0
					c-0.2,0.6-1.6,3.3-3,5.9c-0.1,0.1-0.1,0.3-0.2,0.4l-0.4,0.2c-0.3-0.6-2-4-3-5.8c-0.1-0.3-0.3-0.5-0.4-0.8l0,0
					c0,0.8-0.2,4.6-0.2,5.1c0,0.8,0,1,0.6,1.1l0.5,0.1v0.3h-2.8v-0.4H109.8z"/>
				<path class="st0" d="M121.8,62.5h0.5c0.5-0.1,0.5-0.1,0.5-1.8V56c0-1.7,0-1.7-0.5-1.8h-0.5v-0.3h3.6c1.3,0,3.3,0.2,3.3,2.5
					c0,1.9-2.1,2.7-3.4,2.7h-0.2v-0.3c0.6,0,2.2-0.3,2.2-2.3c0-1.6-1.1-2.1-2.3-2.1c-0.3,0-0.6,0.1-0.8,0.1v6.3c0,1.7,0,1.7,0.8,1.8
					h0.5v0.3H122v-0.4H121.8z"/>
				<path class="st0" d="M127.9,62.5h0.3c0.5-0.1,0.6-0.2,0.9-1l2.8-6.9c0.1-0.3,0.2-0.5,0.3-0.8l0.4-0.1l3,7.9
					c0.2,0.5,0.3,0.9,0.7,0.9l0.5,0.1v0.3h-3.4v-0.3l0.6-0.1c0.2,0,0.4-0.1,0.4-0.3c0-0.1-0.1-0.2-0.1-0.3l-1-2.6
					c-0.5-0.1-1-0.1-1.5-0.1s-1,0.1-1.4,0.1l-0.7,1.9c-0.2,0.4-0.3,0.8-0.3,0.9c0,0.3,0.2,0.3,0.3,0.3l0.8,0.1v0.3h-2.9v-0.3H127.9z
					 M130.8,58.8c0.4,0,0.8-0.1,1.2-0.1s0.9,0,1.3,0.1l-1.3-3.3L130.8,58.8z"/>
				<path class="st0" d="M136.7,62.5h0.5c0.5,0,0.6-0.5,0.6-1.9v-6.7l0.3-0.1c1.1,1.4,5.2,5.6,6.6,7.1v-4.7c0-1.5,0-1.9-0.7-1.9
					h-0.5V54h2.9v0.3h-0.5c-0.5,0-0.6,0.5-0.6,1.9v6.7L145,63c-0.3-0.3-1.1-1.2-2.6-2.7l-4.1-4.3v4.6c0,1.5,0,1.9,0.7,1.9h0.5v0.3
					h-2.9v-0.3H136.7z M139.7,52.6c0.2-0.3,0.7-1.1,1.4-1.1c0.3,0,0.7,0.1,1,0.3c0.3,0.1,0.7,0.3,1,0.3c0.4,0,0.6-0.4,0.7-0.6
					l0.2,0.2c-0.2,0.3-0.5,1.1-1.3,1.1c-0.7,0-1.6-0.5-2-0.5s-0.7,0.4-0.8,0.6L139.7,52.6z"/>
				<path class="st0" d="M147.1,62.5h0.5c0.5-0.1,0.5-0.1,0.5-1.8V56c0-1.7,0-1.7-0.5-1.8h-0.5v-0.3h3.3v0.3h-0.5
					c-0.5,0.1-0.5,0.1-0.5,1.8v4.7c0,1.7,0,1.7,0.5,1.8h0.5v0.3h-3.3V62.5z"/>
				<path class="st0" d="M150.4,62.5h0.3c0.5-0.1,0.6-0.2,0.9-1l2.8-6.9c0.1-0.3,0.2-0.5,0.3-0.8l0.4-0.1l3,7.9
					c0.2,0.5,0.3,0.9,0.7,0.9l0.5,0.1v0.3h-3.4v-0.3l0.6-0.1c0.2,0,0.4-0.1,0.4-0.3c0-0.1-0.1-0.2-0.1-0.3l-1-2.6
					c-0.5-0.1-1-0.1-1.5-0.1s-1,0.1-1.4,0.1l-0.7,1.9c-0.2,0.4-0.3,0.8-0.3,0.9c0,0.3,0.2,0.3,0.3,0.3l0.8,0.1v0.3h-2.9v-0.3H150.4z
					 M153.3,58.8c0.4,0,0.8-0.1,1.2-0.1s0.9,0,1.3,0.1l-1.3-3.3L153.3,58.8z"/>
				<path class="st0" d="M162.4,62.6h0.4c0.4,0,0.4-0.1,0.4-1.5v-3.9c0-1.4,0-1.4-0.4-1.5h-0.4v-0.2h3.7c2.4,0,3.9,1.3,3.9,3.5
					c0,2.9-2.2,4-4.5,4h-3v-0.4H162.4z M164.3,62.3c0.4,0.1,0.9,0.2,1.3,0.2c2.1,0,3.2-1.1,3.2-3.3c0-2.4-1.3-3.4-3.3-3.4
					c-0.4,0-0.8,0.1-1.2,0.1V62.3z"/>
				<path class="st0" d="M170.9,62.6h0.4c0.4,0,0.4-0.1,0.4-1.5v-3.9c0-1.4,0-1.4-0.4-1.5h-0.4v-0.2h4.9c0,0.2,0.1,0.7,0.1,1.2
					c0,0.3,0,0.4,0,0.5h-0.3c-0.2-1.2-0.3-1.4-1.9-1.4h-0.9v3.1h1c0.9,0,1.1,0,1.2-0.5l0.1-0.4h0.3v2h-0.3l-0.1-0.4
					c-0.1-0.5-0.3-0.5-1.2-0.5h-1v3.3c0.4,0.1,0.8,0.1,1.2,0.1c1.8,0,1.9-0.7,2.1-1.6h0.3c0,0.7-0.2,1.3-0.4,1.9h-5.2v-0.2H170.9z"
					/>
				<path class="st0" d="M184.4,56.4c1.3,0.8,2.7,1.5,2.7,3.5c0,2.3-2.1,3.2-3.9,3.2c-1.3,0-2.1-0.4-2.7-0.7c-0.3-0.7-0.5-1.9-0.5-3
					l0.5-0.1c0.2,1.2,0.8,3.2,3.1,3.2c1.2,0,2-0.8,2-2.1c0-1.2-1-2.1-2.4-2.7l-1.1-0.6c-1-0.5-1.9-1.6-1.9-2.8
					c0-2.1,1.7-2.9,3.5-2.9c1.1,0,1.9,0.3,2.3,0.5c0.1,0.5,0.2,1.9,0.2,2.3h-0.4c-0.2-0.8-0.4-2.3-2.4-2.3c-1,0-1.8,0.7-1.8,1.8
					c0,1,0.7,1.5,1.6,2.1L184.4,56.4z"/>
				<path class="st0" d="M188,62.5h0.5c0.5-0.1,0.5-0.1,0.5-1.8V56c0-1.7,0-1.7-0.5-1.8H188v-0.3h5.9c0.1,0.3,0.1,0.8,0.1,1.4
					c0,0.3,0,0.4,0,0.5l-0.3,0.1c-0.3-1.5-0.3-1.7-2.2-1.7h-1.1v3.7h1.2c1.1,0,1.3,0,1.4-0.6l0.1-0.5h0.4v2.5h-0.4l-0.1-0.5
					c-0.1-0.6-0.3-0.6-1.4-0.6h-1.2v3.9c0.5,0.1,1,0.2,1.5,0.2c2.2,0,2.3-0.8,2.6-1.9l0.3,0.1c0,0.9-0.2,1.5-0.5,2.3h-6.2v-0.3H188z
					"/>
				<path class="st0" d="M203.9,62.4c-0.5,0.2-1.9,0.7-3.4,0.7c-2.7,0-5.2-1.2-5.2-4.7c0-3.6,2.9-4.7,5.1-4.7c1.4,0,2.4,0.3,2.8,0.6
					c0.1,0.5,0.2,1.3,0.2,2l-0.4,0.1c-0.1-0.5-0.3-2.2-2.6-2.2c-2.2,0-3.6,1.5-3.6,4c0,2.3,1.2,4.5,3.9,4.5c0.5,0,1.1-0.1,1.6-0.2
					v-0.6c0-1.7,0-1.7-1-1.8h-0.5v-0.3h3.5v0.3h-0.5c-0.3,0.1-0.3,0.1-0.3,1.4c0,0.4,0,0.5,0.2,0.5h0.1L203.9,62.4z"/>
				<path class="st0" d="M212.3,62.6c-0.2-0.2-0.3-0.4-0.5-0.4s-1.3,0.9-3.1,0.9c-2.8,0-3.1-1.6-3.1-3.5V56c0-1.7,0-1.7-0.5-1.8
					h-0.5v-0.3h3.3v0.3h-0.5c-0.5,0.1-0.5,0.1-0.5,1.8v3.4c0,1.9,0.3,3.2,2.4,3.2c1.4,0,2.3-0.8,2.5-1.1V56c0-1.7,0-1.7-0.5-1.8
					h-0.5v-0.3h3.3v0.3h-0.5c-0.5,0.1-0.5,0.1-0.5,1.8v6.9l-0.4,0.1L212.3,62.6z"/>
				<path class="st0" d="M214.8,62.5h0.5c0.5-0.1,0.5-0.1,0.5-1.8V56c0-1.7,0-1.7-0.5-1.8h-0.5v-0.3h3.6c1.3,0,3.1,0.2,3.1,2.3
					c0,1.3-1.1,2-1.9,2.4c0.2,0.4,0.7,1.3,1,1.9c0.6,1,1.2,1.8,1.5,2c0.1,0.1,0.4,0.1,0.7,0.1v0.3h-1.1c-0.9,0-1.5-0.6-1.9-1.4
					l-0.5-1c-0.4-0.7-0.7-1.2-0.8-1.3c-0.2-0.2-0.6-0.2-0.8-0.2h-0.5v1.8c0,1.7,0,1.7,0.5,1.8h0.5v0.3h-3.3L214.8,62.5L214.8,62.5z
					 M217.1,58.5h0.8c1.1,0,2.2-0.6,2.2-2.2s-1-2.1-2.1-2.1c-0.3,0-0.6,0.1-0.8,0.1L217.1,58.5L217.1,58.5z"/>
				<path class="st0" d="M222.6,58.4c0-2.9,2.3-4.8,4.9-4.8c2.5,0,4.6,1.6,4.6,4.6s-2.2,4.8-4.9,4.8S222.6,61.4,222.6,58.4z
					 M227.5,62.6c2.3,0,3.2-2,3.2-4c0-2.6-1.3-4.5-3.4-4.5c-2,0-3.2,1.7-3.2,4.1C224,60.9,225.4,62.6,227.5,62.6z"/>
				<path class="st0" d="M236.6,57.7c1.1,0.6,2.2,1.2,2.2,2.8c0,1.8-1.7,2.5-3.1,2.5c-1.1,0-1.7-0.3-2.1-0.5
					c-0.2-0.5-0.4-1.5-0.4-2.4l0.4-0.1c0.1,1,0.7,2.6,2.5,2.6c0.9,0,1.6-0.6,1.6-1.7c0-1-0.8-1.7-1.9-2.2l-0.9-0.5
					c-0.8-0.4-1.5-1.3-1.5-2.3c0-1.7,1.4-2.4,2.8-2.4c0.8,0,1.5,0.2,1.9,0.4c0.1,0.4,0.1,1.5,0.1,1.9h-0.3c-0.1-0.7-0.4-1.9-1.9-1.9
					c-0.8,0-1.5,0.6-1.5,1.5c0,0.8,0.6,1.2,1.3,1.7L236.6,57.7z"/>
			</g>
		</g>
	</g>
	<path class="st0" d="M32.3,1.4c-17,0-30.7,13.8-30.7,30.7c0,17,13.8,30.7,30.7,30.7C49.3,62.8,63,49,63,32.1
		C63,15.2,49.3,1.4,32.3,1.4z M31.9,14.2c1,0.7,1.8,1.5,2.9,2.5c0.2,0.2,0.4,0.4,1.1,0.2c1.4-0.4,4.7-2,7.1-2.3c1.1-0.1,1.4,0,2,0.6
		c1.2,1.1,2.2,1.8,2.9,2.7c-2.4,0.3-3.2,0.5-3.7,0.6l-0.3,0.1l0,0c-1.1,0.3-1.4,1-1.5,1.4c0,0.1-0.1,0.3-0.1,0.5
		c0,0.4,0.1,0.8,0.5,1.3c0.6,1,1,1.7,1.2,2.2c-2.3,0.7-4.8,1.7-5.9,2.2c-0.7,0.3-1.2,0.9-1.3,1.6c0,0.1,0,0.3,0,0.4
		c0,0.4,0.1,1,0.7,1.6c1.7,1.8,3.6,5.9,3.6,10.4c0,1-0.1,2-0.3,3c-0.9,4.7-4.1,8.3-9.4,10.6c-2.7,1.2-5.5,1.5-8.3,1.4
		c0.2,0,0.3,0,0.5,0c5.3-0.6,9-2.5,11.6-7.1c3.6-6.3,0.9-14.1-4.5-18.5c-1.5-1.2-3.3-2.2-4.9-3.2c-0.4-0.3-0.7-0.6-0.1-1.3
		c0.9-1.2,2.3-3.2,4.8-5.1c0.5-0.4,0.3-0.6,0.1-0.9c-0.9-0.7-1.4-1.1-2.5-1.8c-0.6-0.3-0.8-0.6-0.4-1c0.5-0.5,1.4-1.2,3.4-2.1
		C31.2,13.8,31.6,14,31.9,14.2z M11.9,19.6c0.4-0.8,1.4-2.7,2.3-3.8c0.2-0.3,0.4-0.4,0.9-0.3c0.9,0.1,2.4,0.8,4.4,1.3
		c0.4,0.1,0.6,0.1,0.9-0.3c0.8-0.9,3.1-3,6.8-4.6c0.4-0.2,1-0.2,1.5,0.1c0.4,0.2,0.9,0.4,1.5,0.7c-1.8,0.8-2.7,1.5-3.4,2.2
		c-0.6,0.6-0.7,1.2-0.7,1.6c0,0.1,0,0.2,0,0.3c0.1,0.7,0.5,1.3,1.3,1.7l0,0l0.1,0.1c0,0-0.1,0-0.1-0.1c0.6,0.3,1,0.6,1.4,0.9
		c-2,1.8-3.3,3.5-4.1,4.6c-0.6,0.8-0.7,1.5-0.6,2s0.3,1.1,1.2,1.6l0.8,0.5c1.4,0.8,2.7,1.6,3.9,2.6c4.5,3.7,7.4,10.6,4.1,16.5
		c-2.2,3.9-5.4,6-10.4,6.6c-1.8,0.2-3.5,0.1-5.1-0.3c0.7,0.1,1.3,0.1,2,0.1c3.7-0.1,7.7-1.4,9.7-4.6c5.1-8.1-0.8-16.4-8.7-19
		c-1.8-0.6-4.8-1.2-7.1-1.5c-0.9-0.1-1.1-0.4-0.8-1c0.5-1,1.4-3,3.1-5.6c0.1-0.1,0-0.4-0.3-0.5c-0.9-0.2-2.6-0.7-4.1-0.9
		C11.9,20.3,11.7,20.1,11.9,19.6z M36.5,59.8C18.8,62.5,9.8,49.2,9.8,49.2c4.1,3.9,11,10.3,21.5,5.5c15.2-6.8,10.7-22,6.6-26.5
		c-0.5-0.5-0.2-1,0.2-1.1c1.2-0.5,4.4-1.8,6.9-2.4c0.3-0.1,0.3-0.2,0.2-0.6c-0.2-0.6-0.5-1.6-1.7-3.6c-0.4-0.4-0.2-0.7,0.2-0.8
		c0.6-0.1,1-0.3,4.2-0.7c0.3-0.1,0.7,0.1,0.9,0.4c0.7,1.2,1.2,2.4,1.7,4c0,0.2,0.3,0.5,0.6,0.5c1.2,0,5.4,0.1,7.6,0.5
		c0.2,0,0.6,0.2,0.6,0.5c0.6,1.8,1.9,10.3-1.9,19.3C52.9,54.4,44.6,58.5,36.5,59.8z"/>
</g>
</svg>
